<svg width="64" height="64" viewBox="0 0 64 64" fill="none" xmlns="http://www.w3.org/2000/svg">
  <style><![CDATA[
    .sparkle { transform-origin: center; animation: sparkle-blink 2.2s infinite ease-in-out; }
    .sparkle2 { animation-delay: 0.7s; animation: sparkle-scale 2.5s infinite alternate; }
    .sparkle3 { animation-delay: 1.2s; animation: sparkle-rotate 3s infinite linear; }
    @keyframes sparkle-blink { 0%, 100% { opacity: 0.8; } 50% { opacity: 0.2; } }
    @keyframes sparkle-scale { 0%, 100% { transform: scale(1); } 50% { transform: scale(1.4); } }
    @keyframes sparkle-rotate { 0% { transform: rotate(0deg) scale(1); } 100% { transform: rotate(360deg) scale(1.2); } }
  ]]></style>
  <defs>
    <linearGradient id="tooth-cool" x1="0" y1="0" x2="0" y2="1">
      <stop offset="0%" stop-color="#D72F8B" />
      <stop offset="100%" stop-color="#007bff" />
    </linearGradient>
    <radialGradient id="shine" cx="50%" cy="50%" r="50%">
      <stop offset="0%" stop-color="#fff" stop-opacity="0.8" />
      <stop offset="100%" stop-color="transparent" />
    </radialGradient>
  </defs>
  <!-- Diente bold y curvo -->
  <path d="M32 12C22 12 14 26 20 48C23 60 29 60 32 50C35 60 41 60 44 48C50 26 42 12 32 12Z" fill="url(#tooth-cool)" stroke="white" stroke-width="3.5"/>
  <!-- Sombra interior -->
  <ellipse cx="32" cy="38" rx="10" ry="4" fill="url(#shine)" opacity="0.5"/>
  <!-- Brillos tipo sparkle animados -->
  <g>
    <polygon class="sparkle" points="50,20 52,24 56,24 53,27 54,31 50,29 46,31 47,27 44,24 48,24" fill="#fff" opacity="0.85"/>
    <circle class="sparkle2" cx="40" cy="18" r="2" fill="#fff" opacity="0.8"/>
    <rect class="sparkle3" x="38" y="14" width="1" height="5" rx="0.5" fill="#fff" opacity="0.7"/>
    <polygon points="24,36 25,38 27,38 25.5,39.5 26,42 24,41 22,42 22.5,39.5 21,38 23,38" fill="#fff" opacity="0.6"/>
  </g>
</svg>